<?xml version="1.0" standalone="no"?>
<!DOCTYPE svg PUBLIC "-//W3C//DTD SVG 20010904//EN" "http://www.w3.org/TR/2001/REC-SVG-20010904/DTD/svg10.dtd">
<!-- Created using Krita: https://krita.org -->
<svg xmlns="http://www.w3.org/2000/svg" 
    xmlns:xlink="http://www.w3.org/1999/xlink"
    xmlns:krita="http://krita.org/namespaces/svg/krita"
    xmlns:sodipodi="http://sodipodi.sourceforge.net/DTD/sodipodi-0.dtd"
    width="737.28pt"
    height="737.28pt"
    viewBox="0 0 737.28 737.28">
<defs>
  <radialGradient id="gradient0" gradientUnits="objectBoundingBox" cx="0" cy="0" fx="0" fy="0" r="1.4142135623731" spreadMethod="repeat">
   <stop stop-color="#114cd4" offset="0.115384615957737" stop-opacity="1"/>
   <stop stop-color="#00ffff" offset="0.523076951503754" stop-opacity="1"/>
   <stop stop-color="#7dffd2" offset="1" stop-opacity="1"/>
  </radialGradient>
 </defs>
<path id="shape0" transform="matrix(0.0457429045239505 0 0 -0.0457429045239505 96.9256030211423 629.429020357993)" fill="url(#gradient0)" stroke-opacity="0" stroke="#000000" stroke-width="0" stroke-linecap="square" stroke-linejoin="bevel" d="M5554.66 11350.4C3977.66 11220.4 2888.66 10805.4 1905.66 9960.45C1569.66 9671.45 1122.66 9193.45 924.658 8910.45C173.658 7840.45 -135.342 6462.45 54.6587 5036.45C94.6587 4738.45 192.658 4309.45 284.658 4026.45C560.658 3179.45 978.658 2466.45 1577.66 1819.45C1738.66 1645.45 2185.66 1234.45 2344.66 1114.45C3113.66 533.447 4154.66 145.447 5249.66 32.4473C6178.66 -63.5527 7106.66 54.4473 7913.66 373.447C8460.66 589.447 8919.66 872.447 9429.66 1310.45C9581.66 1440.45 9958.66 1821.45 10079.7 1965.45C10737.7 2758.45 11110.7 3615.45 11273.7 4711.45C11316.7 4999.45 11335.7 5179.45 11369.7 5621.45C11394.7 5952.45 11394.7 5968.45 11359.7 5816.45C11030.7 4354.45 9851.66 2897.45 8434.66 2201.45C7623.66 1803.45 6742.66 1661.45 5809.66 1776.45C4839.66 1897.45 3943.66 2295.45 3305.66 2889.45C3151.66 3032.45 2884.66 3318.45 2762.66 3471.45C2250.66 4112.45 1909.66 4871.45 1770.66 5681.45C1718.66 5983.45 1705.66 6154.45 1705.66 6491.45C1705.66 6937.45 1745.66 7267.45 1850.66 7691.45C1972.66 8183.45 2200.66 8733.45 2411.66 9048.45C3111.66 10096.4 3748.66 10703.4 4493.66 11032.4C4816.66 11174.4 5196.66 11281.4 5564.66 11331.4C5821.66 11367.4 5818.66 11372.4 5554.66 11350.4Z" sodipodi:nodetypes="ccccccccccccccccccccccccc"/>
</svg>
